<svg viewBox="0 0 178 11" xmlns="http://www.w3.org/2000/svg">
  <path d="M178 .002H0v5.081c1.735.002 3.47-.006 5.204.009 2.249.018 2.597.33 2.992 2.584l.027.156c.45 2.739.753 3.003 3.441 2.993 2.128-.008 2.539-.353 2.948-2.475.565-2.923.948-3.254 3.843-3.26 2.374-.007 4.748-.029 7.12.008 1.89.03 2.281.46 2.35 2.378.047 1.34-.302 2.847 1.416 3.508h2.532c1.742-.435 2.177-1.796 2.34-3.348.233-2.23.387-2.164 2.543-2.62 3.065-.649 6.048.35 9.08.139 1.504-.104 2.11 1.121 2.24 2.405.274 2.675 1.703 3.334 4.39 3.048.822-.088 1.342-.498 1.614-1.287l.724-2.101c.631-1.838.957-2.104 2.824-2.124a341.74 341.74 0 0 1 7.42-.001c1.731.017 1.873.182 1.885 1.897.006.905.263 1.781.298 2.68.035.89.73 1.057 1.355 1.312h3.165c1.117-.27 1.562-1.068 1.842-2.127 1.001-3.776 1.027-3.77 4.95-3.77 1.582.001 3.165.012 4.746.003 1.373-.01 2.183.627 2.449 1.978.051.26.1.522.157.78.598 2.76 2.355 3.729 5.08 2.827.645-.215 1.1-.588 1.344-1.227.113-.298.257-.59.314-.9.69-3.778 1.23-3.451 4.755-3.46 2.267-.006 4.536-.012 6.803.003 2.341.015 2.75.36 3.173 2.618.039.208.061.42.11.626.486 2.048 1.047 2.488 3.18 2.49 2.963.003 2.963.003 3.675-2.916.626-2.57 1.762-3.447 4.473-3.318 2.157.104 4.295.47 6.458.536 1.064.033 1.625.648 1.703 1.715.027.37.03.741.053 1.112.088 1.405.503 2.59 2.02 3.03h2.216c1.763-.296 2.13-1.632 2.327-3.12.324-2.433.684-2.753 3.112-2.772 2.266-.017 4.533-.029 6.799.006 1.932.028 2.387.409 2.879 2.256l.202.77c.555 2.086 1.215 2.699 2.91 2.695 2.018-.003 2.933-.703 3.524-2.68a7.78 7.78 0 0 0 .246-1.247c.154-1.204.88-1.763 2.041-1.78 3.373-.049 6.746-.062 10.12.005 1.494.03 1.938.538 2.073 2.032.01.107.014.213.014.318.005 3.523 1.35 3.5 4.442 3.304.934-.06 1.338-.813 1.456-1.647.462-3.275 1.996-4.645 4.603-4.108V.002Z" fill="#B99F65" fill-rule="evenodd"/>
</svg>
